<svg width="155" height="80" viewBox="0 0 155 80" fill="none" xmlns="http://www.w3.org/2000/svg">
<path d="M3.2017 70V40.9091H10.233V52.5852H21.696V40.9091H28.7131V70H21.696V58.3097H10.233V70H3.2017ZM39.2741 70.3693C37.8821 70.3693 36.6463 70.1373 35.5668 69.6733C34.4967 69.1998 33.6491 68.4896 33.0241 67.5426C32.4086 66.5862 32.1009 65.3883 32.1009 63.9489C32.1009 62.7367 32.3139 61.714 32.7401 60.8807C33.1662 60.0473 33.7533 59.3703 34.5014 58.8494C35.2495 58.3286 36.1113 57.9356 37.0866 57.6705C38.062 57.3958 39.1037 57.2112 40.2116 57.1165C41.4522 57.0028 42.4512 56.8845 43.2088 56.7614C43.9664 56.6288 44.5156 56.4441 44.8565 56.2074C45.2069 55.9612 45.3821 55.6155 45.3821 55.1705V55.0994C45.3821 54.3703 45.1312 53.8068 44.6293 53.4091C44.1274 53.0114 43.4503 52.8125 42.598 52.8125C41.6795 52.8125 40.9408 53.0114 40.3821 53.4091C39.8234 53.8068 39.4683 54.3561 39.3168 55.0568L32.9105 54.8295C33.0999 53.5038 33.5876 52.3201 34.3736 51.2784C35.169 50.2273 36.258 49.4034 37.6406 48.8068C39.0327 48.2008 40.7041 47.8977 42.6548 47.8977C44.0469 47.8977 45.33 48.0634 46.5043 48.3949C47.6785 48.7169 48.7012 49.1903 49.5724 49.8153C50.4437 50.4309 51.116 51.1884 51.5895 52.0881C52.0724 52.9877 52.3139 54.0152 52.3139 55.1705V70H45.7798V66.9602H45.6094C45.2211 67.6989 44.724 68.3239 44.1179 68.8352C43.5213 69.3466 42.8158 69.7301 42.0014 69.9858C41.1965 70.2415 40.2874 70.3693 39.2741 70.3693ZM41.419 65.8239C42.1671 65.8239 42.8395 65.6723 43.4361 65.3693C44.0421 65.0663 44.5251 64.6496 44.8849 64.1193C45.2448 63.5795 45.4247 62.9545 45.4247 62.2443V60.1705C45.2259 60.2746 44.9844 60.3693 44.7003 60.4545C44.4257 60.5398 44.1226 60.6203 43.7912 60.696C43.4598 60.7718 43.1188 60.8381 42.7685 60.8949C42.4181 60.9517 42.0819 61.0038 41.7599 61.0511C41.1065 61.1553 40.5478 61.3163 40.0838 61.5341C39.6293 61.7519 39.2789 62.036 39.0327 62.3864C38.7959 62.7273 38.6776 63.1345 38.6776 63.608C38.6776 64.3277 38.9332 64.8769 39.4446 65.2557C39.9654 65.6345 40.6236 65.8239 41.419 65.8239ZM40.4957 45.4119L43.3651 39.0057H49.5156L45.2259 45.4119H40.4957ZM56.5611 70V40.9091H63.5071V51.9176H63.6491C63.9332 51.2547 64.3357 50.6155 64.8565 50C65.3868 49.3845 66.0592 48.8826 66.8736 48.4943C67.6974 48.0966 68.6823 47.8977 69.8281 47.8977C71.3433 47.8977 72.759 48.2955 74.0753 49.0909C75.401 49.8864 76.4711 51.1127 77.2855 52.7699C78.0999 54.4271 78.5071 56.5388 78.5071 59.1051C78.5071 61.5767 78.1141 63.6458 77.3281 65.3125C76.5516 66.9792 75.5005 68.2292 74.1747 69.0625C72.8584 69.8958 71.3954 70.3125 69.7855 70.3125C68.687 70.3125 67.7353 70.1326 66.9304 69.7727C66.1255 69.4129 65.4484 68.9394 64.8991 68.3523C64.3594 67.7652 63.9427 67.1354 63.6491 66.4631H63.4361V70H56.5611ZM63.3651 59.0909C63.3651 60.2652 63.5213 61.2879 63.8338 62.1591C64.1558 63.0303 64.6151 63.7074 65.2116 64.1903C65.8177 64.6638 66.5421 64.9006 67.3849 64.9006C68.2372 64.9006 68.9616 64.6638 69.5582 64.1903C70.1548 63.7074 70.6046 63.0303 70.9077 62.1591C71.2202 61.2879 71.3764 60.2652 71.3764 59.0909C71.3764 57.9167 71.2202 56.8987 70.9077 56.0369C70.6046 55.1752 70.1548 54.5076 69.5582 54.0341C68.9711 53.5606 68.2467 53.3239 67.3849 53.3239C66.5327 53.3239 65.8082 53.5559 65.2116 54.0199C64.6151 54.4839 64.1558 55.1468 63.8338 56.0085C63.5213 56.8703 63.3651 57.8977 63.3651 59.0909ZM82.147 70V48.1818H89.093V70H82.147ZM85.6271 45.6392C84.6518 45.6392 83.8137 45.3172 83.1129 44.6733C82.4122 44.0199 82.0618 43.2339 82.0618 42.3153C82.0618 41.4062 82.4122 40.6297 83.1129 39.9858C83.8137 39.3324 84.6518 39.0057 85.6271 39.0057C86.612 39.0057 87.45 39.3324 88.1413 39.9858C88.8421 40.6297 89.1925 41.4062 89.1925 42.3153C89.1925 43.2339 88.8421 44.0199 88.1413 44.6733C87.45 45.3172 86.612 45.6392 85.6271 45.6392ZM105.83 48.1818V53.2955H92.0653V48.1818H105.83ZM94.9489 42.9545H101.895V63.1392C101.895 63.5653 101.961 63.911 102.094 64.1761C102.236 64.4318 102.439 64.6165 102.705 64.7301C102.97 64.8343 103.287 64.8864 103.656 64.8864C103.921 64.8864 104.201 64.8627 104.494 64.8153C104.797 64.7585 105.025 64.7112 105.176 64.6733L106.227 69.6875C105.896 69.7822 105.427 69.9006 104.821 70.0426C104.224 70.1847 103.509 70.2746 102.676 70.3125C101.047 70.3883 99.6506 70.1989 98.4858 69.7443C97.3305 69.2803 96.4451 68.5606 95.8295 67.5852C95.2235 66.6098 94.9299 65.3835 94.9489 63.9062V42.9545ZM119.324 70.4119C117.032 70.4119 115.063 69.9432 113.415 69.0057C111.777 68.0587 110.512 66.7424 109.622 65.0568C108.741 63.3617 108.301 61.3968 108.301 59.1619C108.301 56.9176 108.741 54.9527 109.622 53.267C110.512 51.572 111.777 50.2557 113.415 49.3182C115.063 48.3712 117.032 47.8977 119.324 47.8977C121.616 47.8977 123.58 48.3712 125.219 49.3182C126.866 50.2557 128.131 51.572 129.011 53.267C129.902 54.9527 130.347 56.9176 130.347 59.1619C130.347 61.3968 129.902 63.3617 129.011 65.0568C128.131 66.7424 126.866 68.0587 125.219 69.0057C123.58 69.9432 121.616 70.4119 119.324 70.4119ZM119.366 65.1705C120.2 65.1705 120.905 64.9148 121.483 64.4034C122.061 63.892 122.501 63.1818 122.804 62.2727C123.116 61.3636 123.273 60.3125 123.273 59.1193C123.273 57.9072 123.116 56.8466 122.804 55.9375C122.501 55.0284 122.061 54.3182 121.483 53.8068C120.905 53.2955 120.2 53.0398 119.366 53.0398C118.505 53.0398 117.776 53.2955 117.179 53.8068C116.592 54.3182 116.142 55.0284 115.83 55.9375C115.527 56.8466 115.375 57.9072 115.375 59.1193C115.375 60.3125 115.527 61.3636 115.83 62.2727C116.142 63.1818 116.592 63.892 117.179 64.4034C117.776 64.9148 118.505 65.1705 119.366 65.1705ZM152.953 54.8438L146.575 55.0142C146.509 54.5597 146.329 54.1572 146.036 53.8068C145.742 53.447 145.358 53.1676 144.885 52.9688C144.421 52.7604 143.881 52.6562 143.266 52.6562C142.461 52.6562 141.774 52.8172 141.206 53.1392C140.647 53.4612 140.373 53.8968 140.382 54.446C140.373 54.8722 140.543 55.2415 140.893 55.554C141.253 55.8665 141.893 56.1174 142.811 56.3068L147.016 57.1023C149.194 57.5189 150.813 58.2102 151.874 59.1761C152.944 60.142 153.483 61.4205 153.493 63.0114C153.483 64.5076 153.038 65.8097 152.158 66.9176C151.286 68.0256 150.093 68.8873 148.578 69.5028C147.063 70.1089 145.33 70.4119 143.379 70.4119C140.264 70.4119 137.806 69.7727 136.007 68.4943C134.217 67.2064 133.195 65.483 132.939 63.3239L139.8 63.1534C139.951 63.9489 140.344 64.5549 140.979 64.9716C141.613 65.3883 142.423 65.5966 143.408 65.5966C144.298 65.5966 145.022 65.4309 145.581 65.0994C146.14 64.768 146.424 64.3277 146.433 63.7784C146.424 63.286 146.206 62.893 145.78 62.5994C145.354 62.2964 144.686 62.0597 143.777 61.8892L139.97 61.1648C137.783 60.767 136.154 60.0331 135.084 58.9631C134.014 57.8835 133.483 56.5104 133.493 54.8438C133.483 53.3854 133.872 52.1402 134.658 51.108C135.444 50.0663 136.561 49.2708 138.01 48.7216C139.459 48.1723 141.168 47.8977 143.138 47.8977C146.092 47.8977 148.422 48.518 150.126 49.7585C151.831 50.9896 152.773 52.6847 152.953 54.8438Z" fill="white"/>
<rect x="0.5" y="0.5" width="15" height="15" rx="3.5" fill="#18181B" stroke="#27272A"/>
<rect x="20.5" y="0.5" width="15" height="15" rx="3.5" fill="#4C1D95" stroke="#6D28D9"/>
<rect x="40.5" y="0.5" width="15" height="15" rx="3.5" fill="#5B21B6" stroke="#7C3AED"/>
<rect x="60.5" y="0.5" width="15" height="15" rx="3.5" fill="#6D28D9" stroke="#8B5CF6"/>
<rect x="80.5" y="0.5" width="15" height="15" rx="3.5" fill="#7C3AED" stroke="#A78BFA"/>
<rect x="100.5" y="0.5" width="15" height="15" rx="3.5" fill="#8B5CF6" stroke="#C4B5FD"/>
</svg>
