<svg width="153" height="64" viewBox="0 0 153 64" fill="none" xmlns="http://www.w3.org/2000/svg">
<path d="M2.76136 56V32.7273H8.38636V42.0682H17.5568V32.7273H23.1705V56H17.5568V46.6477H8.38636V56H2.76136ZM31.6193 56.2955C30.5057 56.2955 29.517 56.1098 28.6534 55.7386C27.7973 55.3598 27.1193 54.7917 26.6193 54.0341C26.1269 53.2689 25.8807 52.3106 25.8807 51.1591C25.8807 50.1894 26.0511 49.3712 26.392 48.7045C26.733 48.0379 27.2027 47.4962 27.8011 47.0795C28.3996 46.6629 29.089 46.3485 29.8693 46.1364C30.6496 45.9167 31.483 45.7689 32.3693 45.6932C33.3617 45.6023 34.161 45.5076 34.767 45.4091C35.3731 45.303 35.8125 45.1553 36.0852 44.9659C36.3655 44.7689 36.5057 44.4924 36.5057 44.1364V44.0795C36.5057 43.4962 36.3049 43.0455 35.9034 42.7273C35.5019 42.4091 34.9602 42.25 34.2784 42.25C33.5436 42.25 32.9527 42.4091 32.5057 42.7273C32.0587 43.0455 31.7746 43.4848 31.6534 44.0455L26.5284 43.8636C26.6799 42.803 27.0701 41.8561 27.6989 41.0227C28.3352 40.1818 29.2064 39.5227 30.3125 39.0455C31.4261 38.5606 32.7633 38.3182 34.3239 38.3182C35.4375 38.3182 36.464 38.4508 37.4034 38.7159C38.3428 38.9735 39.161 39.3523 39.858 39.8523C40.5549 40.3447 41.0928 40.9508 41.4716 41.6705C41.858 42.3902 42.0511 43.2121 42.0511 44.1364V56H36.8239V53.5682H36.6875C36.3769 54.1591 35.9792 54.6591 35.4943 55.0682C35.017 55.4773 34.4527 55.7841 33.8011 55.9886C33.1572 56.1932 32.4299 56.2955 31.6193 56.2955ZM33.3352 52.6591C33.9337 52.6591 34.4716 52.5379 34.9489 52.2955C35.4337 52.053 35.8201 51.7197 36.108 51.2955C36.3958 50.8636 36.5398 50.3636 36.5398 49.7955V48.1364C36.3807 48.2197 36.1875 48.2955 35.9602 48.3636C35.7405 48.4318 35.4981 48.4962 35.233 48.5568C34.9678 48.6174 34.6951 48.6705 34.4148 48.7159C34.1345 48.7614 33.8655 48.803 33.608 48.8409C33.0852 48.9242 32.6383 49.053 32.267 49.2273C31.9034 49.4015 31.6231 49.6288 31.4261 49.9091C31.2367 50.1818 31.142 50.5076 31.142 50.8864C31.142 51.4621 31.3466 51.9015 31.7557 52.2045C32.1723 52.5076 32.6989 52.6591 33.3352 52.6591ZM32.5966 36.3295L34.892 31.2045H39.8125L36.3807 36.3295H32.5966ZM45.4489 56V32.7273H51.0057V41.5341H51.1193C51.3466 41.0038 51.6686 40.4924 52.0852 40C52.5095 39.5076 53.0473 39.1061 53.6989 38.7955C54.358 38.4773 55.1458 38.3182 56.0625 38.3182C57.2746 38.3182 58.4072 38.6364 59.4602 39.2727C60.5208 39.9091 61.3769 40.8902 62.0284 42.2159C62.6799 43.5417 63.0057 45.2311 63.0057 47.2841C63.0057 49.2614 62.6913 50.9167 62.0625 52.25C61.4413 53.5833 60.6004 54.5833 59.5398 55.25C58.4867 55.9167 57.3163 56.25 56.0284 56.25C55.1496 56.25 54.3883 56.1061 53.7443 55.8182C53.1004 55.5303 52.5587 55.1515 52.1193 54.6818C51.6875 54.2121 51.3542 53.7083 51.1193 53.1705H50.9489V56H45.4489ZM50.892 47.2727C50.892 48.2121 51.017 49.0303 51.267 49.7273C51.5246 50.4242 51.892 50.9659 52.3693 51.3523C52.8542 51.7311 53.4337 51.9205 54.108 51.9205C54.7898 51.9205 55.3693 51.7311 55.8466 51.3523C56.3239 50.9659 56.6837 50.4242 56.9261 49.7273C57.1761 49.0303 57.3011 48.2121 57.3011 47.2727C57.3011 46.3333 57.1761 45.5189 56.9261 44.8295C56.6837 44.1402 56.3239 43.6061 55.8466 43.2273C55.3769 42.8485 54.7973 42.6591 54.108 42.6591C53.4261 42.6591 52.8466 42.8447 52.3693 43.2159C51.892 43.5871 51.5246 44.1174 51.267 44.8068C51.017 45.4962 50.892 46.3182 50.892 47.2727ZM65.9176 56V38.5455H71.4744V56H65.9176ZM68.7017 36.5114C67.9214 36.5114 67.2509 36.2538 66.6903 35.7386C66.1297 35.2159 65.8494 34.5871 65.8494 33.8523C65.8494 33.125 66.1297 32.5038 66.6903 31.9886C67.2509 31.4659 67.9214 31.2045 68.7017 31.2045C69.4896 31.2045 70.16 31.4659 70.7131 31.9886C71.2737 32.5038 71.554 33.125 71.554 33.8523C71.554 34.5871 71.2737 35.2159 70.7131 35.7386C70.16 36.2538 69.4896 36.5114 68.7017 36.5114ZM84.8636 38.5455V42.6364H73.8523V38.5455H84.8636ZM76.1591 34.3636H81.7159V50.5114C81.7159 50.8523 81.7689 51.1288 81.875 51.3409C81.9886 51.5455 82.1515 51.6932 82.3636 51.7841C82.5758 51.8674 82.8295 51.9091 83.125 51.9091C83.3371 51.9091 83.5606 51.8902 83.7955 51.8523C84.0379 51.8068 84.2197 51.7689 84.3409 51.7386L85.1818 55.75C84.9167 55.8258 84.5417 55.9205 84.0568 56.0341C83.5795 56.1477 83.0076 56.2197 82.3409 56.25C81.0379 56.3106 79.9205 56.1591 78.9886 55.7955C78.0644 55.4242 77.3561 54.8485 76.8636 54.0682C76.3788 53.2879 76.1439 52.3068 76.1591 51.125V34.3636ZM95.6591 56.3295C93.8258 56.3295 92.25 55.9545 90.9318 55.2045C89.6212 54.447 88.6098 53.3939 87.8977 52.0455C87.1932 50.6894 86.8409 49.1174 86.8409 47.3295C86.8409 45.5341 87.1932 43.9621 87.8977 42.6136C88.6098 41.2576 89.6212 40.2045 90.9318 39.4545C92.25 38.697 93.8258 38.3182 95.6591 38.3182C97.4924 38.3182 99.0644 38.697 100.375 39.4545C101.693 40.2045 102.705 41.2576 103.409 42.6136C104.121 43.9621 104.477 45.5341 104.477 47.3295C104.477 49.1174 104.121 50.6894 103.409 52.0455C102.705 53.3939 101.693 54.447 100.375 55.2045C99.0644 55.9545 97.4924 56.3295 95.6591 56.3295ZM95.6932 52.1364C96.3598 52.1364 96.9242 51.9318 97.3864 51.5227C97.8485 51.1136 98.2008 50.5455 98.4432 49.8182C98.6932 49.0909 98.8182 48.25 98.8182 47.2955C98.8182 46.3258 98.6932 45.4773 98.4432 44.75C98.2008 44.0227 97.8485 43.4545 97.3864 43.0455C96.9242 42.6364 96.3598 42.4318 95.6932 42.4318C95.0038 42.4318 94.4205 42.6364 93.9432 43.0455C93.4735 43.4545 93.1136 44.0227 92.8636 44.75C92.6212 45.4773 92.5 46.3258 92.5 47.2955C92.5 48.25 92.6212 49.0909 92.8636 49.8182C93.1136 50.5455 93.4735 51.1136 93.9432 51.5227C94.4205 51.9318 95.0038 52.1364 95.6932 52.1364ZM122.562 43.875L117.46 44.0114C117.407 43.6477 117.263 43.3258 117.028 43.0455C116.794 42.7576 116.487 42.5341 116.108 42.375C115.737 42.2083 115.305 42.125 114.812 42.125C114.169 42.125 113.619 42.2538 113.165 42.5114C112.718 42.7689 112.498 43.1174 112.506 43.5568C112.498 43.8977 112.634 44.1932 112.915 44.4432C113.203 44.6932 113.714 44.8939 114.449 45.0455L117.812 45.6818C119.555 46.0152 120.85 46.5682 121.699 47.3409C122.555 48.1136 122.987 49.1364 122.994 50.4091C122.987 51.6061 122.631 52.6477 121.926 53.5341C121.229 54.4205 120.275 55.1098 119.062 55.6023C117.85 56.0871 116.464 56.3295 114.903 56.3295C112.411 56.3295 110.445 55.8182 109.006 54.7955C107.574 53.7652 106.756 52.3864 106.551 50.6591L112.04 50.5227C112.161 51.1591 112.475 51.6439 112.983 51.9773C113.491 52.3106 114.138 52.4773 114.926 52.4773C115.638 52.4773 116.218 52.3447 116.665 52.0795C117.112 51.8144 117.339 51.4621 117.347 51.0227C117.339 50.6288 117.165 50.3144 116.824 50.0795C116.483 49.8371 115.949 49.6477 115.222 49.5114L112.176 48.9318C110.426 48.6136 109.123 48.0265 108.267 47.1705C107.411 46.3068 106.987 45.2083 106.994 43.875C106.987 42.7083 107.297 41.7121 107.926 40.8864C108.555 40.053 109.449 39.4167 110.608 38.9773C111.767 38.5379 113.134 38.3182 114.71 38.3182C117.074 38.3182 118.938 38.8144 120.301 39.8068C121.665 40.7917 122.419 42.1477 122.562 43.875Z" fill="white"/>
<rect x="0.5" y="0.5" width="15" height="15" rx="3.5" fill="#202024" stroke="#323236"/>
<rect x="20.5" y="0.5" width="15" height="15" rx="3.5" fill="#9C005E" stroke="#CE047D"/>
<rect x="40.5" y="0.5" width="15" height="15" rx="3.5" fill="#CE047D" stroke="#FF32AD"/>
<rect x="60.5" y="0.5" width="15" height="15" rx="3.5" fill="#FF32AD" stroke="#FF6DC5"/>
<rect x="80.5" y="0.5" width="15" height="15" rx="3.5" fill="#FF6DC5" stroke="#FF99D6"/>
<rect x="100.5" y="0.5" width="15" height="15" rx="3.5" fill="#FF99D6" stroke="#FDCAE8"/>
</svg>
